# xmcd
#
# Track frame offsets: 
#        150
#        15190
#        29765
#        40880
#        54438
#        67985
#        82908
#        99935
#        117703
#
# Disc length: 1792 seconds
#
# Revision: 2
# Processed by: cddbd v1.4PL0 Copyright (c) Steve Scherf et al.
# Submitted via: ExactAudioCopy v0.90b4
#
DISCID=6806fe09
DTITLE=Sylvia - Greatest Hits
DYEAR=1900
DGENRE=Country
TTITLE0=Nobody
TTITLE1=Tumbleweed
TTITLE2=Drifter
TTITLE3=Cry Just A Little Bit
TTITLE4=Fallin' In Love
TTITLE5=Straight From My Heart
TTITLE6=Sweet Yesterday
TTITLE7=Never My Love
TTITLE8=Snapshot
EXTD=
EXTT0=
EXTT1=
EXTT2=
EXTT3=
EXTT4=
EXTT5=
EXTT6=
EXTT7=
EXTT8=
PLAYORDER=
